<svg width="32" height="32" viewBox="0 0 32 32" fill="none" xmlns="http://www.w3.org/2000/svg">
<path fill-rule="evenodd" clip-rule="evenodd" d="M14.9923 12.4294H21.0596C21.0869 12.4294 21.1102 12.445 21.1208 12.4703C21.1315 12.4956 21.1263 12.5233 21.1071 12.543C19.8443 13.8438 19.0771 15.6188 18.9926 17.4979C18.7949 21.8914 22.0675 26.8509 24.7767 30.0927C25.0932 30.4714 25.4835 30.7228 25.991 30.7228C26.4934 30.7228 26.8589 30.4801 27.1826 30.119C28.1481 29.0419 29.134 27.7852 30.0132 26.4218C30.0199 26.4111 30.0296 26.4026 30.0411 26.3972C30.0525 26.3919 30.0653 26.3901 30.0778 26.3918C30.1038 26.3954 30.1243 26.4125 30.1323 26.4376L31.8824 31.9127C31.8857 31.9227 31.8866 31.9334 31.8849 31.9438C31.8833 31.9542 31.8791 31.9641 31.8728 31.9725C31.8667 31.9811 31.8587 31.9881 31.8493 31.9929C31.8399 31.9977 31.8295 32.0001 31.819 32H0.066877C0.044909 32 0.0260689 31.9903 0.0131115 31.9725C0.000154154 31.9547 -0.00319702 31.9337 0.00350508 31.9127L4.99158 16.3077C4.99962 16.2825 5.02003 16.2654 5.04609 16.2619C5.07215 16.2584 5.09635 16.2695 5.11065 16.2917C5.9575 17.5987 6.87747 18.8055 7.74041 19.838C8.05786 20.2178 8.44956 20.4699 8.95855 20.4699C9.4624 20.4699 9.82915 20.2266 10.1538 19.8644C11.9473 17.8638 13.8108 15.2437 14.9307 12.4712C14.9356 12.4588 14.9441 12.4481 14.9551 12.4407C14.966 12.4332 14.979 12.4293 14.9923 12.4294ZM27.7751 11.7398C27.7618 11.7356 27.7501 11.7271 27.7419 11.7157C27.7336 11.7042 27.7293 11.6905 27.7294 11.6764V10.3247C27.7294 10.307 27.7224 10.29 27.7099 10.2775C27.6974 10.265 27.6805 10.2579 27.6629 10.2579H24.3191C24.3015 10.2579 24.2846 10.265 24.2721 10.2775C24.2596 10.29 24.2526 10.307 24.2526 10.3247V11.6762C24.2527 11.6903 24.2484 11.7041 24.2401 11.7155C24.2319 11.7269 24.2202 11.7354 24.2069 11.7397C21.8487 12.5201 20.1126 14.8061 19.9895 17.5431C19.8043 21.6608 23.0558 26.474 25.5409 29.4475C25.6671 29.5985 25.8012 29.7197 25.991 29.7197C26.1809 29.7197 26.3101 29.5938 26.4412 29.4475C29.0907 26.4921 32.1135 21.8723 31.9969 17.662C31.9194 14.8726 30.1674 12.5315 27.7751 11.7398ZM25.2505 11.5005V17.2978C25.2505 17.3346 25.2804 17.3646 25.317 17.3646H26.665C26.6826 17.3646 26.6995 17.3575 26.712 17.345C26.7244 17.3325 26.7314 17.3155 26.7315 17.2978V11.3277C26.7314 11.31 26.7244 11.293 26.712 11.2805C26.6995 11.2679 26.6826 11.2609 26.665 11.2608H25.317C25.2994 11.2609 25.2825 11.2679 25.2701 11.2805C25.2576 11.293 25.2506 11.31 25.2505 11.3277V11.5005ZM24.1538 14.0296C22.9878 14.6797 22.1985 15.9295 22.1985 17.3647C22.1985 19.4697 23.8965 21.1762 25.991 21.1762C28.0856 21.1762 29.7835 19.4697 29.7835 17.3647C29.7835 15.9295 28.9943 14.6798 27.8283 14.0296C27.8182 14.0238 27.8068 14.0208 27.7952 14.021C27.7836 14.0212 27.7722 14.0244 27.7623 14.0305C27.7522 14.0363 27.7439 14.0447 27.7381 14.0548C27.7323 14.065 27.7294 14.0765 27.7296 14.0882V17.2978C27.7296 17.3346 27.7594 17.3646 27.7961 17.3646H28.7239C28.7425 17.3646 28.7584 17.3714 28.7714 17.3847C28.7845 17.3982 28.7908 17.4143 28.7904 17.433C28.7542 18.956 27.515 20.1787 25.991 20.1787C24.4671 20.1787 23.2279 18.956 23.1917 17.433C23.1914 17.4241 23.1929 17.4152 23.1961 17.4069C23.1994 17.3986 23.2043 17.391 23.2106 17.3847C23.2168 17.3783 23.2242 17.3732 23.2323 17.3697C23.2405 17.3662 23.2493 17.3645 23.2582 17.3646H24.186C24.2036 17.3646 24.2205 17.3575 24.233 17.345C24.2455 17.3325 24.2525 17.3155 24.2525 17.2978V14.0881C24.2525 14.0638 24.2406 14.0428 24.2197 14.0305C24.1989 14.0181 24.1749 14.0178 24.1538 14.0296ZM7.2866 0C7.26898 3.95389e-05 7.25208 0.00709375 7.23962 0.019619C7.22716 0.0321443 7.22014 0.0491209 7.2201 0.0668342V1.41834C7.22025 1.43244 7.21588 1.44622 7.20765 1.45765C7.19942 1.46907 7.18776 1.47754 7.17438 1.4818C4.81621 2.26218 3.08014 4.54824 2.95705 7.28522C2.77184 11.4029 6.02333 16.2161 8.50839 19.1896C8.63469 19.3407 8.76873 19.4618 8.95855 19.4618C9.14837 19.4618 9.27765 19.3359 9.40871 19.1896C12.0582 16.2341 15.081 11.6144 14.9644 7.40414C14.8869 4.61462 13.1349 2.27356 10.7427 1.48188C10.7293 1.47761 10.7177 1.46915 10.7095 1.45772C10.7012 1.44629 10.6969 1.43252 10.697 1.41841V0.0668342C10.697 0.0491209 10.6899 0.0321443 10.6775 0.019619C10.665 0.00709375 10.6481 3.95389e-05 10.6305 0H7.2866ZM10.697 3.8302C10.697 3.80588 10.7089 3.78492 10.7298 3.77257C10.7506 3.76022 10.7746 3.75992 10.7957 3.77167C11.9618 4.42183 12.751 5.67155 12.751 7.10672C12.751 9.21173 11.053 10.9182 8.95848 10.9182C6.86392 10.9182 5.16598 9.21173 5.16598 7.10672C5.16598 5.67155 5.95519 4.42183 7.12121 3.77167C7.13128 3.76587 7.14271 3.76289 7.15432 3.76305C7.16593 3.76321 7.17728 3.7665 7.18719 3.77257C7.19729 3.77834 7.20566 3.78674 7.21142 3.79688C7.21719 3.80702 7.22013 3.81853 7.21995 3.8302V7.03989C7.21991 7.0576 7.21289 7.07458 7.20043 7.0871C7.18797 7.09963 7.17108 7.10668 7.15345 7.10672H6.22566C6.21677 7.10657 6.20795 7.10829 6.19976 7.11175C6.19157 7.11522 6.18418 7.12036 6.17807 7.12685C6.1718 7.13317 6.16688 7.14071 6.16363 7.14901C6.16037 7.15732 6.15885 7.16621 6.15916 7.17513C6.19528 8.69802 7.43449 9.92086 8.95848 9.92086C10.4825 9.92086 11.7216 8.69809 11.7578 7.17513C11.7581 7.1662 11.7566 7.1573 11.7534 7.14899C11.7501 7.14068 11.7452 7.13314 11.7389 7.12685C11.7328 7.12036 11.7254 7.11522 11.7172 7.11175C11.709 7.10829 11.7002 7.10657 11.6913 7.10672H10.7635C10.7459 7.10668 10.729 7.09963 10.7165 7.0871C10.7041 7.07458 10.697 7.0576 10.697 7.03989V3.8302ZM9.69906 7.03989C9.69902 7.0576 9.692 7.07458 9.67954 7.0871C9.66708 7.09963 9.65018 7.10668 9.63256 7.10672H8.28454C8.26692 7.10668 8.25003 7.09963 8.23757 7.0871C8.2251 7.07458 8.21808 7.0576 8.21804 7.03989V1.0698C8.21804 1.03297 8.24791 1.00296 8.28454 1.00296H9.63249C9.66912 1.00296 9.69899 1.03297 9.69899 1.0698L9.69906 7.03989ZM15.4439 14.2297V15.0122C15.4439 15.1452 15.4965 15.2728 15.5901 15.3669C15.6837 15.4609 15.8106 15.5137 15.943 15.5137C16.0753 15.5137 16.2022 15.4609 16.2958 15.3669C16.3894 15.2728 16.442 15.1452 16.442 15.0122V14.2297C16.442 14.0967 16.3894 13.9691 16.2958 13.8751C16.2022 13.781 16.0753 13.7282 15.943 13.7282C15.8106 13.7282 15.6837 13.781 15.5901 13.8751C15.4965 13.9691 15.4439 14.0967 15.4439 14.2297ZM17.0608 22.7162H17.8394C17.9718 22.7162 18.0987 22.6634 18.1923 22.5693C18.2859 22.4752 18.3384 22.3477 18.3384 22.2147C18.3384 22.0817 18.2859 21.9541 18.1923 21.86C18.0987 21.766 17.9718 21.7132 17.8394 21.7132H17.0608C16.9284 21.7132 16.8015 21.766 16.7079 21.86C16.6144 21.9541 16.5618 22.0817 16.5618 22.2147C16.5618 22.3477 16.6144 22.4752 16.7079 22.5693C16.8015 22.6634 16.9284 22.7162 17.0608 22.7162ZM14.0384 22.7162H14.8171C14.9494 22.7162 15.0763 22.6634 15.1699 22.5693C15.2635 22.4752 15.3161 22.3477 15.3161 22.2147C15.3161 22.0817 15.2635 21.9541 15.1699 21.86C15.0763 21.766 14.9494 21.7132 14.8171 21.7132H14.0384C13.9061 21.7132 13.7792 21.766 13.6856 21.86C13.592 21.9541 13.5394 22.0817 13.5394 22.2147C13.5394 22.3477 13.592 22.4752 13.6856 22.5693C13.7792 22.6634 13.9061 22.7162 14.0384 22.7162ZM11.0162 22.7162H11.7948C11.9272 22.7162 12.0541 22.6634 12.1477 22.5693C12.2412 22.4752 12.2938 22.3477 12.2938 22.2147C12.2938 22.0817 12.2412 21.9541 12.1477 21.86C12.0541 21.766 11.9272 21.7132 11.7948 21.7132H11.0162C10.8838 21.7132 10.7569 21.766 10.6633 21.86C10.5697 21.9541 10.5172 22.0817 10.5172 22.2147C10.5172 22.3477 10.5697 22.4752 10.6633 22.5693C10.7569 22.6634 10.8838 22.7162 11.0162 22.7162ZM7.99382 22.7162H8.77246C8.9048 22.7162 9.03173 22.6634 9.12531 22.5693C9.21889 22.4752 9.27147 22.3477 9.27147 22.2147C9.27147 22.0817 9.21889 21.9541 9.12531 21.86C9.03173 21.766 8.9048 21.7132 8.77246 21.7132H7.99382C7.86148 21.7132 7.73455 21.766 7.64097 21.86C7.54739 21.9541 7.49481 22.0817 7.49481 22.2147C7.49481 22.3477 7.54739 22.4752 7.64097 22.5693C7.73455 22.6634 7.86148 22.7162 7.99382 22.7162ZM15.4439 17.2672V18.0497C15.4439 18.1827 15.4965 18.3103 15.5901 18.4043C15.6837 18.4984 15.8106 18.5512 15.943 18.5512C16.0753 18.5512 16.2022 18.4984 16.2958 18.4043C16.3894 18.3103 16.442 18.1827 16.442 18.0497V17.2672C16.442 17.1341 16.3894 17.0066 16.2958 16.9125C16.2022 16.8185 16.0753 16.7656 15.943 16.7656C15.8106 16.7656 15.6837 16.8185 15.5901 16.9125C15.4965 17.0066 15.4439 17.1341 15.4439 17.2672ZM15.4439 20.3047V21.0872C15.4439 21.2203 15.4965 21.3478 15.5901 21.4419C15.6837 21.5359 15.8106 21.5888 15.943 21.5888C16.0753 21.5888 16.2022 21.5359 16.2958 21.4419C16.3894 21.3478 16.442 21.2203 16.442 21.0872V20.3047C16.442 20.1717 16.3894 20.0441 16.2958 19.9501C16.2022 19.856 16.0753 19.8032 15.943 19.8032C15.8106 19.8032 15.6837 19.856 15.5901 19.9501C15.4965 20.0441 15.4439 20.1717 15.4439 20.3047ZM15.4439 23.3422V24.1247C15.4439 24.2577 15.4965 24.3853 15.5901 24.4793C15.6837 24.5734 15.8106 24.6262 15.943 24.6262C16.0753 24.6262 16.2022 24.5734 16.2958 24.4793C16.3894 24.3853 16.442 24.2577 16.442 24.1247V23.3422C16.442 23.2092 16.3894 23.0816 16.2958 22.9875C16.2022 22.8935 16.0753 22.8407 15.943 22.8407C15.8106 22.8407 15.6837 22.8935 15.5901 22.9875C15.4965 23.0816 15.4439 23.2092 15.4439 23.3422ZM15.4439 26.3797V27.1623C15.4439 27.2953 15.4965 27.4228 15.5901 27.5169C15.6837 27.6109 15.8106 27.6638 15.943 27.6638C16.0753 27.6638 16.2022 27.6109 16.2958 27.5169C16.3894 27.4228 16.442 27.2953 16.442 27.1623V26.3797C16.442 26.2467 16.3894 26.1191 16.2958 26.0251C16.2022 25.931 16.0753 25.8782 15.943 25.8782C15.8106 25.8782 15.6837 25.931 15.5901 26.0251C15.4965 26.1191 15.4439 26.2467 15.4439 26.3797ZM15.4439 29.4172V30.1997C15.4439 30.3328 15.4965 30.4603 15.5901 30.5544C15.6837 30.6484 15.8106 30.7013 15.943 30.7013C16.0753 30.7013 16.2022 30.6484 16.2958 30.5544C16.3894 30.4603 16.442 30.3328 16.442 30.1997V29.4172C16.442 29.2842 16.3894 29.1566 16.2958 29.0626C16.2022 28.9685 16.0753 28.9157 15.943 28.9157C15.8106 28.9157 15.6837 28.9685 15.5901 29.0626C15.4965 29.1566 15.4439 29.2842 15.4439 29.4172ZM4.97155 22.7162H5.75018C5.88253 22.7162 6.00945 22.6634 6.10303 22.5693C6.19662 22.4752 6.24919 22.3477 6.24919 22.2147C6.24919 22.0817 6.19662 21.9541 6.10303 21.86C6.00945 21.766 5.88253 21.7132 5.75018 21.7132H4.97155C4.8392 21.7132 4.71228 21.766 4.61869 21.86C4.52511 21.9541 4.47254 22.0817 4.47254 22.2147C4.47254 22.3477 4.52511 22.4752 4.61869 22.5693C4.71228 22.6634 4.8392 22.7162 4.97155 22.7162Z" fill="white"/>
</svg>
